<svg id="Layer_1" data-name="Layer 1" xmlns="http://www.w3.org/2000/svg" viewBox="0 0 470.25 371.05"><defs><style>.cls-1{fill:#e6e6e6;}.cls-2{fill:#fff;}.cls-3{fill:#b8bbb6;}.cls-4{fill:#4782f6;}.cls-5{fill:#3f3d56;}</style></defs><g id="main_illus" data-name="main illus"><rect id="Rectangle_58" data-name="Rectangle 58" class="cls-1" x="0.2" y="45.46" width="470.05" height="278.12"/><rect id="Rectangle_59" data-name="Rectangle 59" class="cls-2" x="12.61" y="80.39" width="445.16" height="226.73"/><rect id="Rectangle_60" data-name="Rectangle 60" class="cls-3" y="45.26" width="470.05" height="18.48"/><circle id="Ellipse_6" data-name="Ellipse 6" class="cls-2" cx="13.69" cy="54.7" r="3.44"/><circle id="Ellipse_7" data-name="Ellipse 7" class="cls-2" cx="26.7" cy="54.7" r="3.44"/><circle id="Ellipse_8" data-name="Ellipse 8" class="cls-2" cx="39.65" cy="54.7" r="3.44"/><rect id="Rectangle_61" data-name="Rectangle 61" class="cls-1" x="49.77" y="103.86" width="105.21" height="179.72"/><rect id="Rectangle_62" data-name="Rectangle 62" class="cls-3" x="190.25" y="103.86" width="87.67" height="49.43"/><rect id="Rectangle_63" data-name="Rectangle 63" class="cls-1" x="190.25" y="167.12" width="87.67" height="53.21"/><rect id="Rectangle_64" data-name="Rectangle 64" class="cls-1" x="190.25" y="234.15" width="87.67" height="49.43"/><rect id="Rectangle_65" data-name="Rectangle 65" class="cls-3" x="315.41" y="205.29" width="105.21" height="78.3"/><path id="Path_12" data-name="Path 12" class="cls-4" d="M126.7,127.26l-1.41-.34,30-112.76H329.09v1.42H156.38Z" transform="translate(0 -0.01)"/><path id="Path_13" data-name="Path 13" class="cls-4" d="M343.31,29.81a14.9,14.9,0,1,1,14.9-14.9h0A14.91,14.91,0,0,1,343.31,29.81Zm0-28.39A13.49,13.49,0,1,0,356.8,14.9h0A13.47,13.47,0,0,0,343.32,1.42Z" transform="translate(0 -0.01)"/><circle id="Ellipse_9" data-name="Ellipse 9" class="cls-3" cx="343.32" cy="14.9" r="5.66"/><path id="Path_14" data-name="Path 14" class="cls-4" d="M323.39,356.9H149.6v-1.49H322.31L352,243.8l1.42.34Z" transform="translate(0 -0.01)"/><path id="Path_15" data-name="Path 15" class="cls-4" d="M125,371.06a14.9,14.9,0,1,1,14.9-14.9h0A14.9,14.9,0,0,1,125,371.06Zm0-28.39a13.49,13.49,0,1,0,13.5,13.48h0A13.49,13.49,0,0,0,125,342.67Z" transform="translate(0 -0.01)"/><circle id="Ellipse_10" data-name="Ellipse 10" class="cls-3" cx="125.38" cy="356.15" r="5.66"/><rect id="Rectangle_66" data-name="Rectangle 66" class="cls-3" x="59.35" y="174.47" width="33.52" height="2.02"/><rect id="Rectangle_67" data-name="Rectangle 67" class="cls-3" x="108.18" y="174.47" width="33.52" height="2.02"/><rect id="Rectangle_68" data-name="Rectangle 68" class="cls-3" x="59.35" y="182.43" width="33.52" height="2.02"/><rect id="Rectangle_69" data-name="Rectangle 69" class="cls-3" x="108.18" y="182.43" width="33.52" height="2.02"/><rect id="Rectangle_70" data-name="Rectangle 70" class="cls-3" x="59.35" y="190.99" width="33.52" height="2.02"/><rect id="Rectangle_71" data-name="Rectangle 71" class="cls-3" x="108.18" y="190.99" width="33.52" height="2.02"/><rect id="Rectangle_72" data-name="Rectangle 72" class="cls-3" x="59.35" y="199.42" width="33.52" height="2.02"/><rect id="Rectangle_73" data-name="Rectangle 73" class="cls-3" x="108.18" y="199.42" width="33.52" height="2.02"/><rect id="Rectangle_74" data-name="Rectangle 74" class="cls-3" x="59.35" y="207.45" width="33.52" height="2.02"/><rect id="Rectangle_75" data-name="Rectangle 75" class="cls-3" x="108.18" y="207.45" width="33.52" height="2.02"/><rect id="Rectangle_76" data-name="Rectangle 76" class="cls-3" x="59.35" y="215.94" width="33.52" height="2.02"/><rect id="Rectangle_77" data-name="Rectangle 77" class="cls-3" x="108.18" y="215.94" width="33.52" height="2.02"/><rect id="Rectangle_78" data-name="Rectangle 78" class="cls-3" x="59.35" y="225.86" width="33.52" height="2.02"/><rect id="Rectangle_79" data-name="Rectangle 79" class="cls-3" x="108.18" y="225.86" width="33.52" height="2.02"/><rect id="Rectangle_80" data-name="Rectangle 80" class="cls-3" x="59.35" y="233.88" width="33.52" height="2.02"/><rect id="Rectangle_81" data-name="Rectangle 81" class="cls-3" x="108.18" y="233.88" width="33.52" height="2.02"/><rect id="Rectangle_82" data-name="Rectangle 82" class="cls-3" x="59.35" y="242.45" width="33.52" height="2.02"/><rect id="Rectangle_83" data-name="Rectangle 83" class="cls-3" x="108.18" y="242.45" width="33.52" height="2.02"/><rect id="Rectangle_84" data-name="Rectangle 84" class="cls-1" x="193.13" y="130.95" width="2.02" height="20.3"/><rect id="Rectangle_85" data-name="Rectangle 85" class="cls-1" x="198.17" y="130.97" width="2.02" height="20.3"/><rect id="Rectangle_86" data-name="Rectangle 86" class="cls-1" x="203.72" y="130.98" width="2.02" height="20.3"/><rect id="Rectangle_87" data-name="Rectangle 87" class="cls-1" x="209.18" y="130.98" width="2.02" height="20.3"/><rect id="Rectangle_88" data-name="Rectangle 88" class="cls-1" x="214.02" y="131" width="2.02" height="20.3"/><rect id="Rectangle_89" data-name="Rectangle 89" class="cls-1" x="219.06" y="130.95" width="2.02" height="20.3"/><rect id="Rectangle_90" data-name="Rectangle 90" class="cls-1" x="224.61" y="130.96" width="2.02" height="20.3"/><rect id="Rectangle_91" data-name="Rectangle 91" class="cls-1" x="230.07" y="130.97" width="2.02" height="20.3"/><rect id="Rectangle_92" data-name="Rectangle 92" class="cls-1" x="235.2" y="130.99" width="2.02" height="20.3"/><rect id="Rectangle_93" data-name="Rectangle 93" class="cls-1" x="240.24" y="131" width="2.02" height="20.3"/><rect id="Rectangle_94" data-name="Rectangle 94" class="cls-1" x="245.79" y="130.95" width="2.02" height="20.3"/><rect id="Rectangle_95" data-name="Rectangle 95" class="cls-1" x="251.25" y="130.95" width="2.02" height="20.3"/><rect id="Rectangle_96" data-name="Rectangle 96" class="cls-1" x="256.02" y="130.98" width="2.02" height="20.3"/><rect id="Rectangle_97" data-name="Rectangle 97" class="cls-1" x="261.06" y="131" width="2.02" height="20.3"/><rect id="Rectangle_98" data-name="Rectangle 98" class="cls-1" x="266.61" y="131" width="2.02" height="20.3"/><rect id="Rectangle_99" data-name="Rectangle 99" class="cls-1" x="272.07" y="130.94" width="2.02" height="20.3"/><rect id="Rectangle_100" data-name="Rectangle 100" class="cls-3" x="201.42" y="173.46" width="66.97" height="2.02"/><rect id="Rectangle_101" data-name="Rectangle 101" class="cls-3" x="201.05" y="181.41" width="66.97" height="2.02"/><rect id="Rectangle_102" data-name="Rectangle 102" class="cls-3" x="201.42" y="189.98" width="66.97" height="2.02"/><rect id="Rectangle_103" data-name="Rectangle 103" class="cls-3" x="200.61" y="197.4" width="66.97" height="2.02"/><rect id="Rectangle_104" data-name="Rectangle 104" class="cls-3" x="200.61" y="204.75" width="66.97" height="2.02"/><rect id="Rectangle_105" data-name="Rectangle 105" class="cls-3" x="200.98" y="212.03" width="66.97" height="2.02"/><rect id="Rectangle_106" data-name="Rectangle 106" class="cls-3" x="200.61" y="238.53" width="66.97" height="2.02"/><rect id="Rectangle_107" data-name="Rectangle 107" class="cls-3" x="200.24" y="246.56" width="66.97" height="2.02"/><rect id="Rectangle_108" data-name="Rectangle 108" class="cls-3" x="200.61" y="255.12" width="66.97" height="2.02"/><rect id="Rectangle_109" data-name="Rectangle 109" class="cls-3" x="199.72" y="262.54" width="66.97" height="2.02"/><rect id="Rectangle_110" data-name="Rectangle 110" class="cls-3" x="199.72" y="269.83" width="66.97" height="2.02"/><rect id="Rectangle_111" data-name="Rectangle 111" class="cls-3" x="200.09" y="277.18" width="66.97" height="2.02"/><path id="Path_16" data-name="Path 16" class="cls-5" d="M335.72,92.67h71.42a3,3,0,0,1,3,3V170a3,3,0,0,1-3,3H335.72a3,3,0,0,1-3-3V95.64a3,3,0,0,1,2.93-3Zm71.42,79.11a1.73,1.73,0,0,0,1.75-1.73V95.64a1.73,1.73,0,0,0-1.72-1.75H335.72A1.73,1.73,0,0,0,334,95.61V170a1.74,1.74,0,0,0,1.73,1.75h71.44Z" transform="translate(0 -0.01)"/><path id="Path_17" data-name="Path 17" class="cls-3" d="M391,157.62a2,2,0,0,0,0-4.05H350a2,2,0,0,0,0,4.05Z" transform="translate(0 -0.01)"/><path id="Path_18" data-name="Path 18" class="cls-3" d="M391,145.75a2,2,0,0,0,0-4.05H350a2,2,0,0,0,0,4.05Z" transform="translate(0 -0.01)"/><path id="Path_19" data-name="Path 19" class="cls-3" d="M370,108a12.75,12.75,0,1,1-12.74,12.75A12.75,12.75,0,0,1,370,108Z" transform="translate(0 -0.01)"/><path id="Path_20" data-name="Path 20" class="cls-5" d="M363.17,241.58a11.74,11.74,0,1,1,11.73-11.74A11.74,11.74,0,0,1,363.17,241.58Zm0-22.86a11.06,11.06,0,1,0,11.05,11.06h0A11.06,11.06,0,0,0,363.17,218.72Z" transform="translate(0 -0.01)"/><path id="Path_21" data-name="Path 21" class="cls-2" d="M367.42,228.7h-3.37v-3.38a1.18,1.18,0,0,0-1.14-1.14,1.14,1.14,0,0,0-1.15,1.13h0v3.38h-3.37a1.14,1.14,0,0,0-1.15,1.12v0a1.11,1.11,0,0,0,1.05,1.15h3.47v3.37a1.19,1.19,0,0,0,1.15,1.15,1.14,1.14,0,0,0,1.14-1.13V231h3.37a1.15,1.15,0,0,0,0-2.3h0Z" transform="translate(0 -0.01)"/></g></svg>