<svg id="Layer_1" data-name="Layer 1" xmlns="http://www.w3.org/2000/svg" viewBox="0 0 149.36 29.8"><defs><style>.cls-1{isolation:isolate;}.cls-2{fill:#b8bbb6;}.cls-3{fill:#2de3c5;}</style></defs><g id="sombe" class="cls-1"><g class="cls-1"><path class="cls-2" d="M2.48,35.6a1.54,1.54,0,0,1-.68-1.32,1.61,1.61,0,0,1,.44-1.12,1.45,1.45,0,0,1,1.12-.48,1.71,1.71,0,0,1,.72.16,16.17,16.17,0,0,0,2.56.88A12,12,0,0,0,9.52,34Q14,34,14,31.2a1.52,1.52,0,0,0-1-1.4A20.77,20.77,0,0,0,9.6,28.72a30,30,0,0,1-3.9-1.16,6.84,6.84,0,0,1-2.64-1.82A4.64,4.64,0,0,1,2,22.52,5.75,5.75,0,0,1,4,18,8.55,8.55,0,0,1,9.76,16.2a16.6,16.6,0,0,1,5.8,1,1.54,1.54,0,0,1,.86.6,1.6,1.6,0,0,1,.3.92,1.55,1.55,0,0,1-.46,1.12,1.53,1.53,0,0,1-1.14.48,2.45,2.45,0,0,1-.52-.08A15.36,15.36,0,0,0,10,19.52a6.24,6.24,0,0,0-3.38.78,2.33,2.33,0,0,0-1.22,2,1.84,1.84,0,0,0,1.12,1.76A16.5,16.5,0,0,0,10,25.16a33.12,33.12,0,0,1,3.84,1.18,6.35,6.35,0,0,1,2.54,1.82,4.92,4.92,0,0,1,1.06,3.32,5.27,5.27,0,0,1-2,4.24,8.69,8.69,0,0,1-5.7,1.68A14.88,14.88,0,0,1,2.48,35.6Z" transform="translate(-1.8 -7.6)"/><path class="cls-2" d="M26,36.08a9,9,0,0,1-3.58-3.74,11.81,11.81,0,0,1-1.26-5.54,11.81,11.81,0,0,1,1.26-5.54A9,9,0,0,1,26,17.52a10.75,10.75,0,0,1,5.4-1.32,10.65,10.65,0,0,1,5.36,1.32,9.08,9.08,0,0,1,3.6,3.74A11.7,11.7,0,0,1,41.6,26.8a11.7,11.7,0,0,1-1.28,5.54,9.08,9.08,0,0,1-3.6,3.74,10.65,10.65,0,0,1-5.36,1.32A10.75,10.75,0,0,1,26,36.08Zm8.54-2.76A6.13,6.13,0,0,0,37,30.92a8,8,0,0,0,1-4.16,8,8,0,0,0-1-4.12,6,6,0,0,0-2.48-2.38,7.06,7.06,0,0,0-3.14-.74,7.14,7.14,0,0,0-3.18.74,5.85,5.85,0,0,0-2.46,2.38,8.05,8.05,0,0,0-1,4.12,8.13,8.13,0,0,0,1,4.16,6,6,0,0,0,2.46,2.4,6.9,6.9,0,0,0,3.18.76A6.83,6.83,0,0,0,34.5,33.32Z" transform="translate(-1.8 -7.6)"/><path class="cls-2" d="M47.2,36.68a1.73,1.73,0,0,1-.52-1.28V18.24a1.79,1.79,0,0,1,.52-1.3,1.71,1.71,0,0,1,1.28-.54,1.84,1.84,0,0,1,1.84,1.84v1.64A10,10,0,0,1,53,17.24a7.35,7.35,0,0,1,4.1-1A6.23,6.23,0,0,1,61,17.4a6.63,6.63,0,0,1,2.28,2.92A8.05,8.05,0,0,1,70.6,16.2a6.06,6.06,0,0,1,3.74,1.12,6.72,6.72,0,0,1,2.22,2.88,9.61,9.61,0,0,1,.72,3.68V35.4a1.71,1.71,0,0,1-.54,1.28,1.79,1.79,0,0,1-1.3.52,1.78,1.78,0,0,1-1.8-1.8V24.6a6.39,6.39,0,0,0-.92-3.82,3.72,3.72,0,0,0-3.16-1.22,5.25,5.25,0,0,0-3.38,1.06A10.26,10.26,0,0,0,63.8,23.4v12a1.71,1.71,0,0,1-.54,1.28,1.79,1.79,0,0,1-1.3.52,1.78,1.78,0,0,1-1.8-1.8V24.6a6.39,6.39,0,0,0-.92-3.82,3.72,3.72,0,0,0-3.16-1.22,5.25,5.25,0,0,0-3.38,1.06,10.26,10.26,0,0,0-2.38,2.78v12a1.71,1.71,0,0,1-.54,1.28,1.79,1.79,0,0,1-1.3.52A1.73,1.73,0,0,1,47.2,36.68Z" transform="translate(-1.8 -7.6)"/><path class="cls-2" d="M87,34.36v1a1.71,1.71,0,0,1-.54,1.28,1.79,1.79,0,0,1-1.3.52,1.78,1.78,0,0,1-1.8-1.8v-26a1.79,1.79,0,0,1,.52-1.3A1.71,1.71,0,0,1,85.2,7.6,1.78,1.78,0,0,1,87,9.44v9.8a9.19,9.19,0,0,1,6.84-3,9.39,9.39,0,0,1,4.7,1.26,9.58,9.58,0,0,1,3.6,3.68,11.22,11.22,0,0,1,1.38,5.66,11.22,11.22,0,0,1-1.38,5.66,9.58,9.58,0,0,1-3.6,3.68,9.39,9.39,0,0,1-4.7,1.26A9.19,9.19,0,0,1,87,34.36Zm11.08-2.24a7.39,7.39,0,0,0,1.8-5.32,7.39,7.39,0,0,0-1.8-5.32,6.3,6.3,0,0,0-4.76-1.88,7.5,7.5,0,0,0-3.46.82A9.93,9.93,0,0,0,87,22.6V31a9.93,9.93,0,0,0,2.86,2.18,7.5,7.5,0,0,0,3.46.82A6.3,6.3,0,0,0,98.12,32.12Z" transform="translate(-1.8 -7.6)"/><path class="cls-2" d="M110.14,34.62q-2.74-2.77-2.74-7.82a13.11,13.11,0,0,1,1-5.24,8.9,8.9,0,0,1,3.2-3.88A9.16,9.16,0,0,1,117,16.2a9.31,9.31,0,0,1,5.12,1.38,9,9,0,0,1,3.28,3.68,11.27,11.27,0,0,1,1.12,5,1.79,1.79,0,0,1-.5,1.28,1.77,1.77,0,0,1-1.34.52H111.08a6.57,6.57,0,0,0,2.08,4.36A7.15,7.15,0,0,0,118.08,34a12.19,12.19,0,0,0,2.94-.32,12,12,0,0,0,2.46-.92,1.53,1.53,0,0,1,.72-.16,1.63,1.63,0,0,1,1.12.44,1.45,1.45,0,0,1,.48,1.12,1.73,1.73,0,0,1-1,1.48A14.22,14.22,0,0,1,121.68,37a14.56,14.56,0,0,1-3.92.44A10.22,10.22,0,0,1,110.14,34.62Zm12.74-9.5a6.4,6.4,0,0,0-1-3.28,5.48,5.48,0,0,0-2.22-1.94,6.1,6.1,0,0,0-5.36,0,5.37,5.37,0,0,0-2.2,1.94,6.49,6.49,0,0,0-1,3.28Z" transform="translate(-1.8 -7.6)"/></g></g><path id="Rectangle_1" data-name="Rectangle 1" class="cls-2" d="M131.26,14.88h0a1.75,1.75,0,0,1,2.46.13l17,18.88a1.75,1.75,0,0,1-.13,2.46h0a1.73,1.73,0,0,1-2.46-.13l-17-18.87A1.74,1.74,0,0,1,131.26,14.88Z" transform="translate(-1.8 -7.6)"/><path id="Rectangle_2" data-name="Rectangle 2" class="cls-3" d="M138,28h0a1.73,1.73,0,0,1,.39,2.43l-4.3,5.91a1.74,1.74,0,0,1-2.43.39h0a1.75,1.75,0,0,1-.39-2.44l4.3-5.91A1.73,1.73,0,0,1,138,28Z" transform="translate(-1.8 -7.6)"/><path id="Rectangle_3" data-name="Rectangle 3" class="cls-3" d="M148.42,13.81h0a1.74,1.74,0,0,1,.38,2.44l-3.71,5.1a1.74,1.74,0,0,1-2.43.39h0a1.75,1.75,0,0,1-.39-2.44L146,14.2A1.75,1.75,0,0,1,148.42,13.81Z" transform="translate(-1.8 -7.6)"/></svg>