<svg id="Layer_1" data-name="Layer 1" xmlns="http://www.w3.org/2000/svg" viewBox="0 0 19.63 19.63"><defs><style>.cls-1{fill:#2d3331;}</style></defs><path id="opennewwindow" class="cls-1" d="M17.18,14.73H7.36a2.46,2.46,0,0,1-2.45-2.46h0V2.45A2.35,2.35,0,0,1,5.63.72,2.35,2.35,0,0,1,7.36,0h9.82a2.39,2.39,0,0,1,1.74.72,2.38,2.38,0,0,1,.71,1.73v9.82a2.45,2.45,0,0,1-2.45,2.46Zm0-11A1.2,1.2,0,0,0,16,2.46H8.59A1.21,1.21,0,0,0,7.36,3.67a1.27,1.27,0,0,0,.36.88,1.17,1.17,0,0,0,.87.36H13L7.69,10.26a1.18,1.18,0,0,0,1.67,1.67h0l5.37-5.37v4.49a1.15,1.15,0,0,0,.36.87,1.23,1.23,0,0,0,2.09-.85V3.68ZM16,18.42a1.19,1.19,0,0,1-1.2,1.21H2.45a2.35,2.35,0,0,1-1.73-.72A2.35,2.35,0,0,1,0,17.18V4.91A1.18,1.18,0,0,1,.35,4a1.15,1.15,0,0,1,.87-.36A1.19,1.19,0,0,1,2.09,4a1.18,1.18,0,0,1,.37.87V16a1.21,1.21,0,0,0,1.19,1.23H14.73A1.24,1.24,0,0,1,16,18.42Z" transform="translate(0 0)"/></svg>